# xmcd CD database file
#
# Track frame offsets:
#	180
#	16307
#	45469
#	80768
#	106261
#	150846
#	178066
#	205783
#	238672
#
# Disc length: 3448 seconds
#
# Revision: 0
# Processed by: cddbd v1.5PL3 Copyright (c) Steve Scherf et al.
# Submitted via: CDex 1.50
#
DISCID=640d7609
DTITLE=Shelly Caroll - Shelly Caroll with members of the Duke Ellington Orchestra
DYEAR=1997
DGENRE=Jazz
TTITLE0=Thanks for the beautiful land on the Delta
TTITLE1=Scrappy
TTITLE2=A flower is a lovesome thing
TTITLE3=Lone Star shuffle
TTITLE4=Poor Butterfly
TTITLE5=Basic Black
TTITLE6=Self portrait (Of the bean)
TTITLE7=Blues by five
TTITLE8=Heaven
EXTD=YEAR: 1997
EXTT0=
EXTT1=
EXTT2=
EXTT3=
EXTT4=
EXTT5=
EXTT6=
EXTT7=
EXTT8=
PLAYORDER=
